<svg width="36" height="33" viewBox="0 0 36 33" fill="none" xmlns="http://www.w3.org/2000/svg">
<path d="M35.2857 16.5003C35.2857 25.6045 27.3866 32.985 17.6429 32.985C7.8991 32.985 0 25.6045 0 16.5003C0 7.3962 7.8991 0.015625 17.6429 0.015625C27.3866 0.015625 35.2857 7.3962 35.2857 16.5003Z" fill="#FFCC4D"/>
<path d="M17.6432 20.0232C14.7361 20.0232 12.8061 19.7064 10.4204 19.2732C9.87449 19.1761 8.81494 19.2732 8.81494 20.7733C8.81494 23.7726 12.5033 27.522 17.6432 27.522C22.7832 27.522 26.4715 23.7726 26.4715 20.7733C26.4715 19.2732 25.411 19.1752 24.866 19.2732C22.4803 19.7064 20.5513 20.0232 17.6432 20.0232Z" fill="#664500"/>
<path d="M16.3197 3.02043C15.4777 0.794066 12.8656 -0.374522 10.4818 0.410337C9.03513 0.886564 8.01086 1.97731 7.61194 3.25305C6.44456 2.49383 4.91551 2.24564 3.47076 2.72187C1.08897 3.50765 -0.163674 5.95014 0.678283 8.1765C0.797863 8.49155 0.956649 8.78369 1.14092 9.05386C3.05321 12.3343 8.57837 14.6404 11.9237 14.6688C14.5083 12.6842 17.2616 7.64899 16.5481 3.97471C16.5108 3.65601 16.4373 3.33547 16.3197 3.02043ZM18.9661 3.02043C19.8081 0.794066 22.4212 -0.374522 24.8039 0.410337C26.2507 0.886564 27.2749 1.97731 27.6748 3.25305C28.8422 2.49383 30.3713 2.24564 31.816 2.72187C34.1978 3.50765 35.4495 5.95014 34.6095 8.1765C34.4889 8.49155 34.3311 8.78369 34.1459 9.05386C32.2336 12.3343 26.7084 14.6404 23.3621 14.6688C20.7774 12.6842 18.0252 7.64899 18.7387 3.97471C18.775 3.65601 18.8485 3.33547 18.9661 3.02043Z" fill="#DD2E44"/>
</svg>
